# xmcd
#
# Track frame offsets:
#	150
#	52294
#	94106
#	147706
#	180159
#	210685
#	250679
#	296364
#
# Disc length: 4402 seconds
#
# Revision: 0
# Processed by: cddbd v1.5.2PL0 Copyright (c) Steve Scherf et al.
# Submitted via: audiograbber 1.83.01
#
DISCID=76113008
DTITLE=Max Middleton - Land Of Secrets
DYEAR=2003
DGENRE=Blues
TTITLE0=Loco
TTITLE1=Miles Away
TTITLE2=Cherry Blossom Blues
TTITLE3=Mr. Godsky
TTITLE4=Blues On A Summer's Day
TTITLE5=Cuban Nights
TTITLE6=Land Of Secrets
TTITLE7=Bomba's Bar
EXTD=YEAR: 2003
EXTT0=
EXTT1=
EXTT2=
EXTT3=
EXTT4=
EXTT5=
EXTT6=
EXTT7=
PLAYORDER=
